<svg width="288" height="244" viewBox="0 0 288 244" fill="none" xmlns="http://www.w3.org/2000/svg">
<path d="M258.831 80.8133C267.331 68.8133 298.331 32.8133 283.831 15.3133C271.631 0.613318 216.831 27.3133 195.331 38.3133C173.831 49.3133 138.831 80.8133 133.831 80.8133C128.831 80.8133 120.831 73.3133 116.331 74.8133C111.831 76.3133 112.331 96.8133 110.831 99.8133C109.331 102.813 85.331 100.813 68.831 100.813C52.331 100.813 21.331 108.313 14.331 111.313C7.33097 114.313 7.83097 119.313 12.331 119.813C16.831 120.313 39.831 118.313 44.831 121.313C49.831 124.313 60.331 124.313 69.331 124.313C78.331 124.313 90.831 127.813 93.331 127.813C95.831 127.813 80.831 148.813 72.331 157.813C63.831 166.813 60.331 186.813 56.831 189.813C53.331 192.813 36.731 176.613 26.331 179.813C19.831 181.813 33.331 183.313 39.331 192.313C45.331 201.313 44.831 227.813 42.331 237.813C39.831 247.813 45.831 243.313 48.831 239.313C51.831 235.313 57.831 212.813 60.831 207.313C63.831 201.813 65.831 199.813 66.831 201.813C67.831 203.813 62.331 213.313 65.331 213.313C68.331 213.313 72.831 210.313 76.331 203.813C79.831 197.313 79.831 194.813 86.831 197.313C93.831 199.813 106.331 205.313 109.331 203.313C112.331 201.313 105.831 186.313 109.831 181.813C113.831 177.313 157.731 156.513 168.831 152.813C171.831 151.813 171.831 155.313 171.831 160.813C171.831 166.313 189.831 164.313 196.831 166.813C203.831 169.313 238.331 189.313 241.831 190.313C245.331 191.313 242.331 183.313 239.831 174.813C237.331 166.313 227.831 142.313 225.831 137.313C223.831 132.313 213.331 129.313 215.331 124.813C217.331 120.313 250.331 92.8133 258.831 80.8133ZM117.331 79.8133C119.331 77.3133 133.431 81.4133 130.831 84.8133C127.831 88.8133 122.331 89.3133 118.331 87.3133C114.331 85.3133 115.331 82.3133 117.331 79.8133ZM217.831 136.813C233.331 149.813 231.331 166.813 231.331 166.813C231.331 166.813 223.331 156.813 220.831 151.313C218.331 145.813 207.831 143.313 208.831 139.813C209.831 136.313 213.731 133.313 217.831 136.813ZM204.331 126.813C195.331 137.813 187.831 133.813 183.831 135.313C179.831 136.813 176.331 132.313 176.831 126.813C177.331 121.313 160.331 128.813 149.831 138.813C139.331 148.813 113.831 145.813 110.831 143.313C107.831 140.813 110.331 136.313 122.331 133.813C134.331 131.313 144.331 126.313 141.331 125.313C138.331 124.313 132.831 120.313 136.331 115.813C139.831 111.313 135.331 105.813 130.331 106.813C125.331 107.813 100.331 108.313 92.831 111.313C85.331 114.313 63.831 111.813 56.331 110.813C48.831 109.813 36.331 116.313 38.331 112.313C40.331 108.313 53.831 106.313 58.831 105.313C63.831 104.313 89.831 107.813 99.331 105.813C108.831 103.813 148.831 100.813 149.331 103.313C149.831 105.813 136.831 119.313 141.331 117.813C145.831 116.313 150.331 109.813 154.331 104.313C158.331 98.8133 153.831 93.3133 156.831 93.3133C159.831 93.3133 165.831 99.3133 167.331 95.8133C168.831 92.3133 159.831 89.8133 160.331 86.8133C160.831 83.8133 164.331 73.3133 167.331 80.3133C170.331 87.3133 175.831 87.3133 175.831 83.8133C175.831 80.3133 168.831 76.8133 171.831 73.3133C174.831 69.8133 187.831 60.3133 198.831 55.8133C209.831 51.3133 216.831 37.8133 221.331 36.3133C225.831 34.8133 227.831 35.3133 231.331 30.3133C234.831 25.3133 238.331 24.3133 248.331 20.3133C258.331 16.3133 277.031 13.5133 279.831 19.3133C285.831 31.8133 280.331 34.8133 277.831 40.8133C275.331 46.8133 271.831 44.3133 268.331 46.3133C264.831 48.3133 267.331 59.3133 265.831 62.3133C264.331 65.3133 261.331 62.3133 258.831 55.3133C256.331 48.3133 236.831 49.3133 232.831 52.8133C228.831 56.3133 216.331 53.8133 219.831 55.8133C223.331 57.8133 223.831 58.8133 230.831 56.8133C237.831 54.8133 249.331 50.3133 255.831 59.8133C262.331 69.3133 257.331 71.3133 250.831 81.3133C244.331 91.3133 213.331 115.813 204.331 126.813Z" fill="#639AD2"/>
<path d="M249.831 69.8133C258.331 57.8133 289.331 21.8133 274.831 4.31332C262.631 -10.3867 207.831 16.3133 186.331 27.3133C164.831 38.3133 129.831 69.8133 124.831 69.8133C119.831 69.8133 111.831 62.3133 107.331 63.8133C102.831 65.3133 103.331 85.8133 101.831 88.8133C100.331 91.8133 76.331 89.8133 59.831 89.8133C43.331 89.8133 12.331 97.3133 5.33097 100.313C-1.66903 103.313 -1.16903 108.313 3.33097 108.813C7.83097 109.313 30.831 107.313 35.831 110.313C40.831 113.313 51.331 113.313 60.331 113.313C69.331 113.313 81.831 116.813 84.331 116.813C86.831 116.813 71.831 137.813 63.331 146.813C54.831 155.813 51.331 175.813 47.831 178.813C44.331 181.813 27.731 165.613 17.331 168.813C10.831 170.813 24.331 172.313 30.331 181.313C36.331 190.313 35.831 216.813 33.331 226.813C30.831 236.813 36.831 232.313 39.831 228.313C42.831 224.313 48.831 201.813 51.831 196.313C54.831 190.813 56.831 188.813 57.831 190.813C58.831 192.813 53.331 202.313 56.331 202.313C59.331 202.313 63.831 199.313 67.331 192.813C70.831 186.313 70.831 183.813 77.831 186.313C84.831 188.813 97.331 194.313 100.331 192.313C103.331 190.313 96.831 175.313 100.831 170.813C104.831 166.313 148.731 145.513 159.831 141.813C162.831 140.813 162.831 144.313 162.831 149.813C162.831 155.313 180.831 153.313 187.831 155.813C194.831 158.313 229.331 178.313 232.831 179.313C236.331 180.313 233.331 172.313 230.831 163.813C228.331 155.313 218.831 131.313 216.831 126.313C214.831 121.313 204.331 118.313 206.331 113.813C208.331 109.313 241.331 81.8133 249.831 69.8133ZM108.331 68.8133C110.331 66.3133 124.431 70.4133 121.831 73.8133C118.831 77.8133 113.331 78.3133 109.331 76.3133C105.331 74.3133 106.331 71.3133 108.331 68.8133ZM208.831 125.813C224.331 138.813 222.331 155.813 222.331 155.813C222.331 155.813 214.331 145.813 211.831 140.313C209.331 134.813 198.831 132.313 199.831 128.813C200.831 125.313 204.731 122.413 208.831 125.813ZM195.331 115.813C186.331 126.813 178.831 122.813 174.831 124.313C170.831 125.813 167.331 121.313 167.831 115.813C168.331 110.313 151.331 117.813 140.831 127.813C130.331 137.813 104.831 134.813 101.831 132.313C98.831 129.813 101.331 125.313 113.331 122.813C125.331 120.313 135.331 115.313 132.331 114.313C129.331 113.313 123.831 109.313 127.331 104.813C130.831 100.313 126.331 94.8133 121.331 95.8133C116.331 96.8133 91.331 97.3133 83.831 100.313C76.331 103.313 54.831 100.813 47.331 99.8133C39.831 98.8133 27.331 105.313 29.331 101.313C31.331 97.3133 44.831 95.3133 49.831 94.3133C54.831 93.3133 80.831 96.8133 90.331 94.8133C99.831 92.8133 139.831 89.8133 140.331 92.3133C140.831 94.8133 127.831 108.313 132.331 106.813C136.831 105.313 141.331 98.8133 145.331 93.3133C149.331 87.8133 144.831 82.3133 147.831 82.3133C150.831 82.3133 156.831 88.3133 158.331 84.8133C159.831 81.3133 150.831 78.8133 151.331 75.8133C151.831 72.8133 155.331 62.3133 158.331 69.3133C161.331 76.3133 166.831 76.3133 166.831 72.8133C166.831 69.3133 159.831 65.8133 162.831 62.3133C165.831 58.8133 178.831 49.3133 189.831 44.8133C200.831 40.3133 207.831 26.8133 212.331 25.3133C216.831 23.8133 218.831 24.3133 222.331 19.3133C225.831 14.3133 229.331 13.3133 239.331 9.31332C249.331 5.31332 268.031 2.51332 270.831 8.31332C276.831 20.8133 271.331 23.8133 268.831 29.8133C266.331 35.8133 262.831 33.3133 259.331 35.3133C255.831 37.3133 258.331 48.3133 256.831 51.3133C255.331 54.3133 252.331 51.3133 249.831 44.3133C247.331 37.3133 227.831 38.3133 223.831 41.8133C219.831 45.3133 207.331 42.8133 210.831 44.8133C214.331 46.8133 214.831 47.8133 221.831 45.8133C228.831 43.8133 240.331 39.3133 246.831 48.8133C253.331 58.3133 248.331 60.3133 241.831 70.3133C235.331 80.3133 204.331 104.813 195.331 115.813Z" fill="#010B38"/>
</svg>
